<svg xmlns="http://www.w3.org/2000/svg" viewBox="0 0 1904 1000" preserveAspectRatio="xMidYMid" width="1904" height="1000" xmlns:xlink="http://www.w3.org/1999/xlink" style="shape-rendering:auto;display:block;background-position-x:0%;background-position-y:0%;background-size:auto;background-origin:padding-box;background-clip:border-box;background:scroll rgb(255, 255, 255) none  repeat;width:1904px;height:1000px;;animation:none"><g><circle fill-opacity="0.4" fill="#ff7e47" r="2150.631535154267" cy="0" cx="0" transform="matrix(0.9950000047683716,0,0,0.9950000047683716,0,0)" style="fill:rgb(255, 126, 71);transform:matrix(0.995, 0, 0, 0.995, 0, 0);;animation:none"></circle>
<circle fill-opacity="0.4" fill="#ff7e47" r="1955.11957741297" cy="0" cx="0" transform="matrix(0.9957138299942017,0,0,0.9957138299942017,0,0)" style="fill:rgb(255, 126, 71);transform:matrix(0.995714, 0, 0, 0.995714, 0, 0);;animation:none"></circle>
<circle fill-opacity="0.4" fill="#ff7e47" r="1759.607619671673" cy="0" cx="0" transform="matrix(0.99781733751297,0,0,0.99781733751297,0,0)" style="fill:rgb(255, 126, 71);transform:matrix(0.997817, 0, 0, 0.997817, 0, 0);;animation:none"></circle>
<circle fill-opacity="0.4" fill="#ff7e47" r="1564.095661930376" cy="0" cx="0" transform="matrix(1.0007541179656982,0,0,1.0007541179656982,0,0)" style="fill:rgb(255, 126, 71);transform:matrix(1.00075, 0, 0, 1.00075, 0, 0);;animation:none"></circle>
<circle fill-opacity="0.4" fill="#ff7e47" r="1368.583704189079" cy="0" cx="0" transform="matrix(1.0033912658691406,0,0,1.0033912658691406,0,0)" style="fill:rgb(255, 126, 71);transform:matrix(1.00339, 0, 0, 1.00339, 0, 0);;animation:none"></circle>
<circle fill-opacity="0.4" fill="#ff7e47" r="1173.071746447782" cy="0" cx="0" transform="matrix(1.004823923110962,0,0,1.004823923110962,0,0)" style="fill:rgb(255, 126, 71);transform:matrix(1.00482, 0, 0, 1.00482, 0, 0);;animation:none"></circle>
<circle fill-opacity="0.4" fill="#ff7e47" r="977.559788706485" cy="0" cx="0" transform="matrix(1.004823923110962,0,0,1.004823923110962,0,0)" style="fill:rgb(255, 126, 71);transform:matrix(1.00482, 0, 0, 1.00482, 0, 0);;animation:none"></circle>
<circle fill-opacity="0.4" fill="#ff7e47" r="782.047830965188" cy="0" cx="0" transform="matrix(1.0033912658691406,0,0,1.0033912658691406,0,0)" style="fill:rgb(255, 126, 71);transform:matrix(1.00339, 0, 0, 1.00339, 0, 0);;animation:none"></circle>
<circle fill-opacity="0.4" fill="#ff7e47" r="586.535873223891" cy="0" cx="0" transform="matrix(1.0007541179656982,0,0,1.0007541179656982,0,0)" style="fill:rgb(255, 126, 71);transform:matrix(1.00075, 0, 0, 1.00075, 0, 0);;animation:none"></circle>
<circle fill-opacity="0.4" fill="#ff7e47" r="391.023915482594" cy="0" cx="0" transform="matrix(0.9978172779083252,0,0,0.9978172779083252,0,0)" style="fill:rgb(255, 126, 71);transform:matrix(0.997817, 0, 0, 0.997817, 0, 0);;animation:none"></circle>
<circle fill-opacity="0.4" fill="#ff7e47" r="195.511957741297" cy="0" cx="0" transform="matrix(0.9957138299942017,0,0,0.9957138299942017,0,0)" style="fill:rgb(255, 126, 71);transform:matrix(0.995714, 0, 0, 0.995714, 0, 0);;animation:none"></circle>
<circle fill-opacity="0.4" fill="#ff7e47" r="0" cy="0" cx="0" transform="matrix(0.9950000047683716,0,0,0.9950000047683716,0,0)" style="fill:rgb(255, 126, 71);transform:matrix(0.995, 0, 0, 0.995, 0, 0);;animation:none"></circle>
<g></g></g><!-- [ldio] generated by https://loading.io --></svg>